<?xml version="1.0" encoding="UTF-8"?>
<svg width="12px" height="12px" viewBox="0 0 12 12" version="1.1" xmlns="http://www.w3.org/2000/svg" xmlns:xlink="http://www.w3.org/1999/xlink">
    <!-- Generator: Sketch 63 (92445) - https://sketch.com -->
    <title>icon_关闭（三种状态）icon画板</title>
    <desc>Created with Sketch.</desc>
    <g id="统一的提示弹窗设计" stroke="none" stroke-width="1" fill="none" fill-rule="evenodd">
        <g id="没有启动dobotlink的提示" transform="translate(-948.000000, -251.000000)" fill="#8F99A6" fill-rule="nonzero" stroke="#8F99A6">
            <g id="编组-6" transform="translate(467.000000, 236.000000)">
                <g id="icon_关闭（三种状态）icon画板" transform="translate(482.000000, 16.000000)">
                    <path d="M5.7544484,4.99343619 L9.73290698,1.11698937 C9.93372958,0.92131607 9.93372958,0.598719541 9.73290698,0.403046236 L9.71119643,0.381892365 C9.51037383,0.186219061 9.17928792,0.186219061 8.97846531,0.381892365 L5.00000674,4.26362765 L1.02154816,0.381892365 C0.820725558,0.186219061 0.489639646,0.186219061 0.288817044,0.381892365 L0.267106493,0.403046236 C0.0608562526,0.598719541 0.0608562526,0.92131607 0.267106493,1.11698937 L4.24556507,4.99343619 L0.267106493,8.86988301 C0.0662838905,9.06555632 0.0662838905,9.38815285 0.267106493,9.58382615 L0.288817044,9.60498002 C0.489639646,9.80065333 0.820725558,9.80065333 1.02154816,9.60498002 L5.00000674,5.7285332 L8.97846531,9.60498002 C9.17928792,9.80065333 9.51037383,9.80065333 9.71119643,9.60498002 L9.73290698,9.58382615 C9.93372958,9.38815285 9.93372958,9.06555632 9.73290698,8.86988301 L5.7544484,4.99343619 L5.7544484,4.99343619 Z" id="路径"></path>
                </g>
            </g>
        </g>
    </g>
</svg>